<svg width="8" height="14" viewBox="0 0 8 14" fill="none" xmlns="http://www.w3.org/2000/svg">
<path d="M6.76862 7.49276L7.14392 5.10926H4.79598V3.56327C4.782 3.38228 4.80901 3.20046 4.875 3.03134C4.94099 2.86222 5.04426 2.71016 5.17713 2.58647C5.31001 2.46277 5.46905 2.37062 5.64245 2.31688C5.81585 2.26314 5.99913 2.24918 6.17867 2.27605H7.24598V0.24678C6.61788 0.147902 5.98352 0.093993 5.34774 0.0854653C4.91726 0.0469394 4.48357 0.103547 4.0774 0.251277C3.67123 0.399008 3.30252 0.634247 2.99737 0.94033C2.69223 1.24641 2.45813 1.61585 2.31166 2.02248C2.16518 2.4291 2.10991 2.86296 2.14976 3.29332V5.10926H0V7.49276H2.14976V13.254H4.79598V7.49276H6.76862Z" fill="#411A0F"/>
</svg>
