<svg width="25" height="25" viewBox="0 0 25 25" fill="none" xmlns="http://www.w3.org/2000/svg">
<circle cx="12.5" cy="12.5" r="12.5" fill="#FFF7E9"/>
<path d="M15.7686 13.419L16.1439 11.0355H13.796V9.48954C13.782 9.30854 13.809 9.12673 13.875 8.95761C13.941 8.78849 14.0443 8.63643 14.1771 8.51274C14.31 8.38904 14.4691 8.29689 14.6425 8.24315C14.8159 8.18941 14.9991 8.17545 15.1787 8.20232H16.246V6.17305C15.6179 6.07417 14.9835 6.02026 14.3477 6.01173C13.9173 5.97321 13.4836 6.02982 13.0774 6.17755C12.6712 6.32528 12.3025 6.56052 11.9974 6.8666C11.6922 7.17268 11.4581 7.54212 11.3117 7.94874C11.1652 8.35537 11.1099 8.78923 11.1498 9.21959V11.0355H9V13.419H11.1498V19.1803H13.796V13.419H15.7686Z" fill="#411A0F"/>
</svg>
