<svg width="25" height="25" viewBox="0 0 25 25" fill="none" xmlns="http://www.w3.org/2000/svg">
<circle cx="12.5" cy="12.5" r="12.5" fill="#FFF7E9"/>
<path d="M12.5879 9.20884C11.9201 9.20871 11.2672 9.40662 10.7119 9.77755C10.1565 10.1485 9.72367 10.6758 9.46802 11.2927C9.21236 11.9096 9.14541 12.5885 9.27561 13.2436C9.40582 13.8986 9.72734 14.5002 10.1995 14.9725C10.6717 15.4448 11.2733 15.7664 11.9283 15.8967C12.5833 16.0271 13.2622 15.9602 13.8792 15.7047C14.4962 15.4492 15.0235 15.0164 15.3946 14.4612C15.7656 13.9059 15.9636 13.2531 15.9636 12.5852C15.9644 12.1417 15.8776 11.7023 15.7083 11.2924C15.5389 10.8824 15.2903 10.5099 14.9767 10.1963C14.6631 9.88258 14.2906 9.6339 13.8807 9.46445C13.4708 9.29501 13.0314 9.20815 12.5879 9.20884ZM12.5879 14.7798C12.1537 14.7799 11.7292 14.6513 11.3681 14.4101C11.007 14.169 10.7256 13.8262 10.5593 13.4251C10.3931 13.024 10.3495 12.5826 10.4341 12.1567C10.5188 11.7309 10.7278 11.3397 11.0348 11.0326C11.3417 10.7255 11.7329 10.5164 12.1587 10.4316C12.5846 10.3469 13.026 10.3903 13.4271 10.5564C13.8283 10.7226 14.1712 11.0039 14.4124 11.3649C14.6537 11.726 14.7824 12.1504 14.7824 12.5846C14.7815 13.1664 14.5501 13.7242 14.1387 14.1356C13.7274 14.5471 13.1697 14.7787 12.5879 14.7798ZM16.8867 9.07057C16.8867 9.22684 16.8404 9.3796 16.7536 9.50953C16.6668 9.63947 16.5434 9.74074 16.399 9.80054C16.2546 9.86034 16.0958 9.87599 15.9425 9.8455C15.7892 9.81501 15.6484 9.73976 15.5379 9.62926C15.4274 9.51876 15.3522 9.37798 15.3217 9.22471C15.2912 9.07145 15.3069 8.91258 15.3667 8.76821C15.4265 8.62383 15.5277 8.50044 15.6577 8.41362C15.7876 8.3268 15.9404 8.28046 16.0966 8.28046C16.2006 8.27985 16.3036 8.29987 16.3997 8.33936C16.4959 8.37885 16.5832 8.43702 16.6567 8.51051C16.7302 8.584 16.7884 8.67135 16.8278 8.76749C16.8673 8.86362 16.8874 8.96664 16.8867 9.07057ZM19.1254 9.8699C19.1472 8.84611 18.7652 7.85487 18.062 7.11044C17.3165 6.40938 16.3264 6.02753 15.3032 6.04642C14.2162 5.98453 10.9576 5.98453 9.87122 6.04642C8.84736 6.0255 7.85605 6.40652 7.10978 7.1078C6.40777 7.85296 6.02599 8.84371 6.04642 9.86727C5.98453 10.9543 5.98453 14.2129 6.04642 15.3006C6.02481 16.3242 6.40677 17.3151 7.10978 18.0594C7.85558 18.76 8.84546 19.1418 9.86858 19.1234C10.9556 19.1853 14.2142 19.1853 15.3006 19.1234C16.3243 19.1451 17.3154 18.7628 18.0594 18.0594C18.7602 17.3135 19.1418 16.3232 19.1228 15.2999C19.1847 14.2129 19.1847 10.9543 19.1228 9.8699H19.1254ZM17.7183 16.4667C17.6066 16.7497 17.4379 17.0068 17.2227 17.222C17.0075 17.4372 16.7504 17.6059 16.4673 17.7177C15.6008 18.0614 13.5446 17.9811 12.5866 17.9811C11.6286 17.9811 9.56966 18.0574 8.7058 17.7177C8.42273 17.6059 8.16563 17.4372 7.95043 17.222C7.73524 17.0068 7.56654 16.7497 7.45479 16.4667C7.11109 15.5995 7.19142 13.5433 7.19142 12.582C7.19142 11.6207 7.11504 9.56439 7.45479 8.69724C7.56654 8.41417 7.73524 8.15707 7.95043 7.94187C8.16563 7.72668 8.42273 7.55798 8.7058 7.44623C9.57229 7.10253 11.6286 7.18286 12.5866 7.18286C13.5446 7.18286 15.6035 7.10649 16.4673 7.44623C16.7504 7.55798 17.0075 7.72668 17.2227 7.94187C17.4379 8.15707 17.6066 8.41417 17.7183 8.69724C18.062 9.56439 17.9817 11.6207 17.9817 12.582C17.9817 13.5433 18.062 15.6028 17.7183 16.4667Z" fill="#411A0F"/>
</svg>
