<svg width="14" height="14" viewBox="0 0 14 14" fill="none" xmlns="http://www.w3.org/2000/svg">
<path d="M6.58788 3.28257C5.92006 3.28244 5.26721 3.48035 4.71187 3.85128C4.15654 4.2222 3.72367 4.74948 3.46802 5.36643C3.21236 5.98337 3.14541 6.66228 3.27561 7.31728C3.40582 7.97228 3.72734 8.57396 4.19951 9.04623C4.67168 9.51849 5.2733 9.84013 5.92828 9.97046C6.58325 10.1008 7.26217 10.034 7.87917 9.77844C8.49616 9.52291 9.02353 9.09014 9.39456 8.53488C9.76559 7.97962 9.96363 7.3268 9.96363 6.65898C9.96441 6.21542 9.87764 5.77607 9.70827 5.36611C9.53891 4.95616 9.29029 4.58367 8.97668 4.26999C8.66306 3.95632 8.29062 3.70763 7.8807 3.53818C7.47078 3.36874 7.03144 3.28188 6.58788 3.28257ZM6.58788 8.85351C6.15369 8.85364 5.7292 8.72501 5.36812 8.48388C5.00704 8.24275 4.72557 7.89995 4.55932 7.49884C4.39307 7.09773 4.3495 6.65633 4.43413 6.23046C4.51876 5.8046 4.72778 5.41339 5.03476 5.10632C5.34173 4.79925 5.73288 4.59011 6.15872 4.50536C6.58456 4.4206 7.02598 4.46404 7.42714 4.63016C7.82829 4.79629 8.17118 5.07766 8.41241 5.43867C8.65366 5.79968 8.78242 6.22413 8.78242 6.65832C8.78155 7.24014 8.55008 7.79789 8.13873 8.20936C7.72738 8.62083 7.1697 8.85247 6.58788 8.85351ZM10.8867 3.1443C10.8867 3.30057 10.8404 3.45333 10.7536 3.58326C10.6668 3.7132 10.5434 3.81447 10.399 3.87427C10.2546 3.93407 10.0958 3.94972 9.94249 3.91923C9.78923 3.88874 9.64844 3.81349 9.53794 3.70299C9.42744 3.59249 9.35219 3.45171 9.32171 3.29844C9.29122 3.14518 9.30687 2.98631 9.36667 2.84194C9.42647 2.69756 9.52774 2.57417 9.65767 2.48735C9.78761 2.40053 9.94037 2.35419 10.0966 2.35419C10.2006 2.35358 10.3036 2.3736 10.3997 2.41309C10.4959 2.45258 10.5832 2.51075 10.6567 2.58424C10.7302 2.65773 10.7884 2.74508 10.8278 2.84122C10.8673 2.93735 10.8874 3.04037 10.8867 3.1443ZM13.1254 3.94363C13.1472 2.91984 12.7652 1.9286 12.062 1.18417C11.3165 0.483109 10.3264 0.101264 9.30323 0.12015C8.21617 0.0582575 4.95762 0.0582575 3.87122 0.12015C2.84736 0.0992291 1.85605 0.480248 1.10978 1.18153C0.40777 1.92669 0.0259862 2.91744 0.046419 3.941C-0.015473 5.02806 -0.015473 8.28661 0.046419 9.37433C0.0248125 10.3979 0.406774 11.3889 1.10978 12.1331C1.85558 12.8338 2.84546 13.2155 3.86858 13.1972C4.95564 13.259 8.2142 13.259 9.3006 13.1972C10.3243 13.2188 11.3154 12.8366 12.0594 12.1331C12.7602 11.3872 13.1418 10.397 13.1228 9.37367C13.1847 8.28661 13.1847 5.02806 13.1228 3.94363H13.1254ZM11.7183 10.5404C11.6066 10.8235 11.4379 11.0806 11.2227 11.2958C11.0075 11.511 10.7504 11.6797 10.4673 11.7914C9.60084 12.1351 7.54458 12.0548 6.58657 12.0548C5.62856 12.0548 3.56966 12.1312 2.7058 11.7914C2.42273 11.6797 2.16563 11.511 1.95043 11.2958C1.73524 11.0806 1.56654 10.8235 1.45479 10.5404C1.11109 9.67325 1.19142 7.61699 1.19142 6.65569C1.19142 5.69439 1.11504 3.63812 1.45479 2.77097C1.56654 2.4879 1.73524 2.2308 1.95043 2.0156C2.16563 1.80041 2.42273 1.63171 2.7058 1.51996C3.57229 1.17627 5.62856 1.25659 6.58657 1.25659C7.54458 1.25659 9.60347 1.18022 10.4673 1.51996C10.7504 1.63171 11.0075 1.80041 11.2227 2.0156C11.4379 2.2308 11.6066 2.4879 11.7183 2.77097C12.062 3.63812 11.9817 5.69439 11.9817 6.65569C11.9817 7.61699 12.062 9.67655 11.7183 10.5404Z" fill="#411A0F"/>
</svg>
