<svg width="25" height="25" viewBox="0 0 25 25" fill="none" xmlns="http://www.w3.org/2000/svg">
<circle cx="12.5" cy="12.5" r="12.5" fill="#FFF7E9"/>
<path d="M8.96487 19.1685H6.23438V10.3772H8.96487V19.1685ZM7.59732 9.17754C7.28309 9.17923 6.97543 9.0877 6.71322 8.91453C6.45101 8.74136 6.24604 8.49433 6.12423 8.20467C6.00242 7.91501 5.96924 7.59574 6.02888 7.28722C6.08853 6.9787 6.23831 6.6948 6.45931 6.47141C6.6803 6.24803 6.96257 6.09519 7.27043 6.03222C7.57829 5.96926 7.8979 5.999 8.18886 6.11768C8.47981 6.23636 8.72904 6.43866 8.90502 6.69898C9.08101 6.95931 9.17585 7.26598 9.17754 7.5802C9.17826 8.0011 9.01254 8.40522 8.71652 8.70444C8.42051 9.00366 8.0182 9.17372 7.59732 9.17754ZM19.1856 19.1685H16.4584V14.8887C16.4584 13.8688 16.438 12.5605 15.0389 12.5605C13.6193 12.5605 13.402 13.6687 13.402 14.815V19.1685H10.6748V10.3772H13.2934V11.5762H13.3316C13.5934 11.128 13.9719 10.7593 14.4268 10.5093C14.8817 10.2593 15.3959 10.1374 15.9146 10.1566C18.6799 10.1566 19.1856 11.9759 19.1856 14.3396V19.1685Z" fill="#411A0F"/>
</svg>
