<svg width="14" height="14" viewBox="0 0 14 14" fill="none" xmlns="http://www.w3.org/2000/svg">
<path d="M2.96487 13.2422H0.234377V4.45092H2.96487V13.2422ZM1.59732 3.25127C1.28309 3.25296 0.975425 3.16143 0.713218 2.98826C0.451011 2.81509 0.246043 2.56806 0.124232 2.2784C0.00242141 1.98874 -0.0307604 1.66947 0.0288826 1.36095C0.0885256 1.05243 0.238315 0.768531 0.459308 0.545143C0.680302 0.321756 0.962574 0.168916 1.27043 0.105953C1.57829 0.042989 1.8979 0.0727288 2.18886 0.191411C2.47981 0.310094 2.72904 0.512389 2.90502 0.772715C3.08101 1.03304 3.17585 1.33971 3.17754 1.65393C3.17826 2.07483 3.01254 2.47895 2.71652 2.77817C2.42051 3.07739 2.0182 3.24745 1.59732 3.25127ZM13.1856 13.2422H10.4584V8.96246C10.4584 7.94256 10.438 6.63427 9.03885 6.63427C7.61928 6.63427 7.402 7.7424 7.402 8.88872V13.2422H4.6748V4.45092H7.29336V5.64992H7.33155C7.5934 5.20176 7.97193 4.83304 8.42681 4.58305C8.88169 4.33306 9.39587 4.21116 9.91456 4.23035C12.6799 4.23035 13.1856 6.04958 13.1856 8.41333V13.2422Z" fill="#411A0F"/>
</svg>
