<svg width="16" height="12" viewBox="0 0 16 12" fill="none" xmlns="http://www.w3.org/2000/svg">
<path d="M15.1438 0.080838C14.4807 0.528904 13.7512 0.86996 12.9822 1.09152C12.5566 0.631449 12.0043 0.307793 11.3949 0.161425C10.7855 0.0150575 10.1465 0.052543 9.55837 0.269148C8.97698 0.472086 8.47326 0.85113 8.11724 1.35358C7.76123 1.85604 7.57062 2.45693 7.5719 3.07273V3.73115C6.37471 3.76794 5.18632 3.51515 4.10776 2.99426C3.02919 2.47338 2.09232 1.6998 1.37677 0.739264C1.37677 0.739264 -1.37677 6.68354 4.81836 9.3258C3.38728 10.2535 1.70416 10.7156 0 10.6486C6.19513 13.9512 13.767 10.6486 13.767 3.05297C13.7663 2.86879 13.7478 2.68512 13.7117 2.5045C14.4091 1.84866 14.9058 1.00812 15.1438 0.080838Z" fill="#411A0F"/>
</svg>
