<svg width="25" height="25" viewBox="0 0 25 25" fill="none" xmlns="http://www.w3.org/2000/svg">
<circle cx="12.5" cy="12.5" r="12.5" fill="#FFF7E9"/>
<path d="M20.1438 7.00711C19.4807 7.45517 18.7512 7.79623 17.9822 8.01779C17.5566 7.55772 17.0043 7.23406 16.3949 7.08769C15.7855 6.94133 15.1465 6.97881 14.5584 7.19542C13.977 7.39836 13.4733 7.7774 13.1172 8.27985C12.7612 8.78231 12.5706 9.3832 12.5719 9.999V10.6574C11.3747 10.6942 10.1863 10.4414 9.10776 9.92053C8.02919 9.39965 7.09232 8.62607 6.37677 7.66553C6.37677 7.66553 3.62323 13.6098 9.81836 16.2521C8.38728 17.1798 6.70416 17.6418 5 17.5748C11.1951 20.8775 18.767 17.5748 18.767 9.97924C18.7663 9.79506 18.7478 9.61139 18.7117 9.43077C19.4091 8.77493 19.9058 7.93439 20.1438 7.00711Z" fill="#411A0F"/>
</svg>
