<svg width="78" height="24" viewBox="0 0 78 24" fill="none" xmlns="http://www.w3.org/2000/svg">
<g clip-path="url(#clip0_373_4487)">
<path d="M48.3791 18.6389C43.8518 22.0208 37.2897 23.8251 31.6399 23.8251C23.718 23.8251 16.5862 20.8557 11.1908 15.9169C10.7669 15.5286 11.1467 14.9993 11.6554 15.3017C17.4781 18.7351 24.6777 20.8007 32.1147 20.8007C37.1303 20.8007 42.6479 19.749 47.7212 17.5666C48.4876 17.2367 49.1285 18.0753 48.3791 18.6389Z" fill="#FF9900"/>
<path d="M50.261 16.4569C49.6845 15.7076 46.4357 16.1029 44.9775 16.2782C44.5333 16.3331 44.4654 15.9414 44.8656 15.6595C47.4531 13.814 51.6989 14.3467 52.194 14.9653C52.6892 15.5874 52.0652 19.9006 49.6337 21.9592C49.2606 22.2754 48.9046 22.107 49.0707 21.6877C49.6167 20.3061 50.8409 17.2095 50.261 16.4569Z" fill="#FF9900"/>
<path d="M45.0792 2.63013V0.836107C45.0792 0.564598 45.2827 0.382446 45.5269 0.382446H53.4522C53.7065 0.382446 53.91 0.568035 53.91 0.836107V2.37237C53.9066 2.63013 53.6929 2.96694 53.3131 3.49965L49.2063 9.44193C50.7324 9.40413 52.3432 9.63439 53.7269 10.4249C54.0388 10.6036 54.1236 10.8648 54.1474 11.1225V13.0369C54.1474 13.2981 53.8625 13.6039 53.5641 13.4458C51.1258 12.1502 47.8871 12.0092 45.1911 13.4596C44.9164 13.6108 44.6282 13.3084 44.6282 13.0472V11.2291C44.6282 10.937 44.6316 10.4386 44.9198 9.99526L49.6777 3.08036H45.537C45.2827 3.08036 45.0792 2.89821 45.0792 2.63013Z" fill="#221F1F"/>
<path d="M16.169 13.8239H13.7578C13.5272 13.8067 13.3441 13.6314 13.3271 13.408V0.867023C13.3271 0.616135 13.534 0.416797 13.7917 0.416797H16.0401C16.2741 0.427101 16.4606 0.609259 16.4776 0.83609V2.47546H16.5217C17.1084 0.891079 18.2105 0.152161 19.6959 0.152161C21.205 0.152161 22.1477 0.891079 22.826 2.47546C23.4093 0.891079 24.7353 0.152161 26.1562 0.152161C27.1668 0.152161 28.2723 0.57489 28.9472 1.52346C29.7102 2.57856 29.5542 4.11139 29.5542 5.45519L29.5508 13.3702C29.5508 13.6211 29.3439 13.8239 29.0862 13.8239H26.6784C26.4377 13.8067 26.2444 13.6108 26.2444 13.3702V6.72338C26.2444 6.19411 26.2918 4.87437 26.1765 4.37259C25.9968 3.53057 25.4576 3.29342 24.759 3.29342C24.1757 3.29342 23.5653 3.68866 23.3177 4.32104C23.0702 4.95341 23.0939 6.01195 23.0939 6.72338V13.3702C23.0939 13.6211 22.887 13.8239 22.6293 13.8239H20.2215C19.9774 13.8067 19.7874 13.6108 19.7874 13.3702L19.7841 6.72338C19.7841 5.32459 20.0113 3.26593 18.2987 3.26593C16.5658 3.26593 16.6336 5.27304 16.6336 6.72338V13.3702C16.6336 13.6211 16.4267 13.8239 16.169 13.8239Z" fill="#221F1F"/>
<path d="M60.7334 0.152161C64.3111 0.152161 66.2475 3.26593 66.2475 7.22516C66.2475 11.0503 64.1076 14.0851 60.7334 14.0851C57.22 14.0851 55.3074 10.9713 55.3074 7.09112C55.3074 3.18688 57.2438 0.152161 60.7334 0.152161ZM60.7537 2.7126C58.9767 2.7126 58.8648 5.1665 58.8648 6.69589C58.8648 8.22871 58.841 11.5006 60.7334 11.5006C62.6019 11.5006 62.6901 8.86109 62.6901 7.25265C62.6901 6.19411 62.646 4.92936 62.3306 3.9258C62.0593 3.05285 61.5201 2.7126 60.7537 2.7126Z" fill="#221F1F"/>
<path d="M70.8866 13.8239H68.4856C68.2448 13.8067 68.0515 13.6108 68.0515 13.3702L68.0481 0.825779C68.0684 0.595511 68.2685 0.416797 68.5127 0.416797H70.7475C70.9578 0.427101 71.1307 0.571455 71.1782 0.767354V2.6851H71.2223C71.8971 0.970127 72.8433 0.152161 74.5084 0.152161C75.5902 0.152161 76.6449 0.547396 77.3231 1.63C77.9539 2.63355 77.9539 4.32104 77.9539 5.53424V13.4286C77.9268 13.6486 77.7267 13.8239 77.4893 13.8239H75.0713C74.8509 13.8067 74.6678 13.6417 74.644 13.4286V6.61684C74.644 5.24554 74.8 3.23843 73.1349 3.23843C72.5483 3.23843 72.0091 3.63711 71.7411 4.24199C71.402 5.0084 71.3579 5.77138 71.3579 6.61684V13.3702C71.3546 13.6211 71.1443 13.8239 70.8866 13.8239Z" fill="#221F1F"/>
<path d="M38.7614 7.83365V7.30438C37.0183 7.30438 35.1768 7.68243 35.1768 9.76515C35.1768 10.8203 35.716 11.5351 36.6418 11.5351C37.3201 11.5351 37.9271 11.1124 38.3103 10.425C38.7851 9.57956 38.7614 8.78565 38.7614 7.83365ZM41.1929 13.7897C41.0335 13.934 40.8029 13.9443 40.6232 13.8481C39.8228 13.1745 39.6804 12.8617 39.2395 12.219C37.917 13.5869 36.981 13.9959 35.265 13.9959C33.2371 13.9959 31.6567 12.7277 31.6567 10.1879C31.6567 8.20483 32.7182 6.85415 34.2273 6.19428C35.5363 5.61002 37.3642 5.50692 38.7614 5.34538V5.0292C38.7614 4.44837 38.8055 3.761 38.4697 3.25923C38.1747 2.809 37.6117 2.62341 37.1166 2.62341C36.1976 2.62341 35.3769 3.10113 35.1768 4.09094C35.1361 4.3109 34.9768 4.52742 34.7597 4.53773L32.4198 4.2834C32.2231 4.23873 32.006 4.07719 32.0603 3.77132C32.5995 0.898127 35.1599 0.0320435 37.4524 0.0320435C38.6257 0.0320435 40.1586 0.348232 41.0844 1.24868C42.2577 2.35878 42.1458 3.84005 42.1458 5.45193V9.25993C42.1458 10.4044 42.6138 10.9062 43.0547 11.5248C43.2107 11.7448 43.2446 12.0094 43.0479 12.1744C42.5562 12.5902 41.6812 13.3635 41.1997 13.7965L41.1929 13.7897Z" fill="#221F1F"/>
<path d="M7.15175 7.83365V7.30438C5.40866 7.30438 3.56722 7.68243 3.56722 9.76515C3.56722 10.8203 4.10642 11.5351 5.03223 11.5351C5.71048 11.5351 6.31751 11.1124 6.70072 10.425C7.17549 9.57956 7.15175 8.78565 7.15175 7.83365ZM9.58327 13.7897C9.42388 13.934 9.19327 13.9443 9.01354 13.8481C8.21321 13.1745 8.07078 12.8617 7.62992 12.219C6.30733 13.5869 5.37136 13.9959 3.65539 13.9959C1.62743 13.9959 0.0471191 12.7277 0.0471191 10.1879C0.0471191 8.20483 1.10857 6.85415 2.61767 6.19428C3.92669 5.61002 5.75456 5.50692 7.15175 5.34538V5.0292C7.15175 4.44837 7.19584 3.761 6.86011 3.25923C6.56507 2.809 6.00212 2.62341 5.507 2.62341C4.58798 2.62341 3.7673 3.10113 3.56722 4.09094C3.52652 4.3109 3.36714 4.52742 3.1501 4.53773L0.810147 4.2834C0.613455 4.23873 0.396416 4.07719 0.450675 3.77132C0.989882 0.898127 3.55026 0.0320435 5.84274 0.0320435C7.0161 0.0320435 8.54894 0.348232 9.47475 1.24868C10.6481 2.35878 10.5362 3.84005 10.5362 5.45193V9.25993C10.5362 10.4044 11.0042 10.9062 11.4451 11.5248C11.6011 11.7448 11.635 12.0094 11.4383 12.1744C10.9465 12.5902 10.0716 13.3635 9.59005 13.7965L9.58327 13.7897Z" fill="#221F1F"/>
</g>
<defs>
<clipPath id="clip0_373_4487">
<rect width="78" height="23.8588" fill="white"/>
</clipPath>
</defs>
</svg>
