<svg width="161" height="53" viewBox="0 0 161 53" fill="none" xmlns="http://www.w3.org/2000/svg">
<rect x="0.00012207" y="-0.00244141" width="161" height="53" rx="26.5" fill="white"/>
<path d="M56.9705 22.0076C58.0425 22.0076 58.9996 22.2756 59.8418 22.8115C60.6917 23.3397 61.3578 24.09 61.8402 25.0621C62.3072 25.9961 62.5408 27.0948 62.5408 28.3579C62.5408 29.5827 62.3072 30.6775 61.8402 31.6422C61.3731 32.6066 60.7146 33.3608 59.8648 33.9043C59.0072 34.4556 58.0425 34.731 56.9705 34.731C56.1896 34.731 55.4545 34.5703 54.7654 34.2488C54.0763 33.9271 53.4868 33.4756 52.9968 32.8937V34.4391H49V18H52.9968V23.8335C53.4868 23.2517 54.0763 22.8038 54.7654 22.49C55.4545 22.1683 56.1896 22.0076 56.9705 22.0076ZM55.7761 31.4124C56.3427 31.4124 56.848 31.2823 57.2921 31.022C57.7362 30.7616 58.0846 30.3981 58.3373 29.9312C58.5899 29.4717 58.7163 28.9472 58.7163 28.3579C58.7163 27.7837 58.5899 27.2632 58.3373 26.7961C58.0846 26.3292 57.7362 25.9654 57.2921 25.7053C56.848 25.4449 56.3427 25.3148 55.7761 25.3148C55.2402 25.3148 54.7616 25.4449 54.3405 25.7053C53.9194 25.958 53.5902 26.3138 53.3528 26.7731C53.1154 27.2402 52.9968 27.7684 52.9968 28.3579C52.9968 28.9472 53.1154 29.4757 53.3528 29.9426C53.5902 30.4018 53.9194 30.7616 54.3405 31.022C54.7616 31.2823 55.2402 31.4124 55.7761 31.4124Z" fill="#1C1C1C"/>
<path d="M63.0879 34.4391V18H67.0846V34.4391H63.0879Z" fill="#1C1C1C"/>
<path d="M68.2175 34.4389V22.2798H72.1914V34.4389H68.2175Z" fill="#1C1C1C"/>
<path d="M80.8238 22.0073C81.6737 22.0073 82.4395 22.2064 83.1208 22.6045C83.8023 22.995 84.3382 23.5462 84.7287 24.2581C85.104 24.9777 85.2915 25.7931 85.2915 26.7041V34.4389H81.4786V27.5997C81.4786 27.1556 81.3906 26.7614 81.2143 26.417C81.0459 26.0648 80.8048 25.7931 80.4907 25.6017C80.1846 25.4103 79.8248 25.3146 79.4113 25.3146C79.0208 25.3146 78.6608 25.4103 78.3317 25.6017C78.0023 25.7854 77.7459 26.0381 77.5621 26.3596C77.3707 26.6657 77.275 27.0255 77.275 27.439L77.252 34.4389H73.2782V22.283H77.252V23.6725C77.6272 23.152 78.1287 22.7462 78.7565 22.4552C79.3844 22.1567 80.0735 22.0073 80.8238 22.0073Z" fill="#1C1C1C"/>
<path d="M94.0734 27.6L98.5822 34.4391H94.0688L91.4319 30.1377L90.2145 31.5502V34.4391H86.2177V18H90.2145V27.0832L94.0569 22.2769L98.5673 22.28L94.0734 27.6Z" fill="#1C1C1C"/>
<path d="M68.2153 18.001H72.2023V21.1124H68.2153V18.001Z" fill="#1C1C1C"/>
<path d="M99.1897 34.4398V22.2798H103.177V34.4398H99.1897Z" fill="#0C831F"/>
<path d="M111.598 30.9737L112.39 33.5344C112.03 33.879 111.575 34.1583 111.023 34.3727C110.48 34.587 109.947 34.6944 109.427 34.6944C108.676 34.6944 108.007 34.5297 107.417 34.2005C106.827 33.8637 106.368 33.3966 106.039 32.7994C105.71 32.2178 105.545 31.5479 105.545 30.7899V25.4248H103.949V22.2797H105.545V18.001H109.358V22.2797H111.873V25.4248H109.358V30.055C109.358 30.4455 109.461 30.7632 109.668 31.0081C109.875 31.2531 110.139 31.3755 110.461 31.3755C110.69 31.3755 110.904 31.3411 111.104 31.2722C111.303 31.2034 111.467 31.1037 111.598 30.9737Z" fill="#0C831F"/>
<path d="M99.1897 18.001H103.177V21.1124H99.1897V18.001Z" fill="#0C831F"/>
</svg>
