<svg width="82" height="81" viewBox="0 0 82 81" fill="none" xmlns="http://www.w3.org/2000/svg">
<path d="M76.9694 41.2619C76.9694 41.2619 76.9549 41.1673 76.9468 41.1266C76.584 39.0799 75.7451 37.012 74.8402 35.1475C74.2739 33.9622 73.7189 32.7917 73.2197 31.6018C73.8503 30.1063 74.2897 28.5466 74.1744 26.9556C74.0341 24.9374 73.0601 23.1966 71.6961 21.6971C71.6618 21.653 71.6145 21.6072 71.5802 21.563C70.1655 20.0438 68.3476 18.7644 66.5849 17.6774C65.4625 16.9905 64.368 16.2938 63.2916 15.5598C63.0028 13.973 62.5242 12.4148 61.572 11.1271C60.3572 9.50108 58.5891 8.55916 56.622 8.02884C56.5713 8.0091 56.5076 7.98768 56.4552 7.98097C54.4324 7.47 52.2106 7.37064 50.1438 7.41037C48.8379 7.42843 47.5321 7.44648 46.2346 7.39938C45.1365 6.21218 43.8874 5.16458 42.3769 4.60007C40.4725 3.89234 38.4839 4.04807 36.5433 4.6603C36.4892 4.66662 36.4336 4.68598 36.3779 4.70533C34.406 5.3533 32.4804 6.47081 30.7494 7.62651C29.6594 8.34778 28.571 9.05602 27.4598 9.73483C25.8883 9.3347 24.2673 9.11367 22.6939 9.45507C20.7112 9.87647 19.1191 11.0897 17.8158 12.6446C17.7699 12.6917 17.7387 12.7275 17.7058 12.7763C16.3958 14.3833 15.3843 16.3598 14.5563 18.2538C14.0312 19.4448 13.506 20.6359 12.9319 21.7942C11.3908 22.2987 9.91959 22.9843 8.77609 24.1226C7.33077 25.5401 6.65169 27.4135 6.39443 29.4204C6.38775 29.4725 6.3794 29.5377 6.37272 29.5898C6.14804 31.6539 6.37136 33.8549 6.70799 35.8982C6.91571 37.1832 7.11035 38.4665 7.26405 39.7578C6.23804 41.0172 5.38355 42.3912 5.03747 43.9496C4.59701 45.933 5.04029 47.8708 5.93712 49.6945C5.95661 49.75 5.97777 49.7924 6.01035 49.8496C6.94311 51.7044 8.32943 53.4451 9.71463 54.987C10.5875 55.9599 11.4473 56.9311 12.2759 57.9381C12.0966 59.5443 12.1153 61.1627 12.6808 62.6658C13.3942 64.572 14.8125 65.9592 16.5507 67.0297C16.5997 67.0625 16.6487 67.0953 16.6863 67.1133C18.4786 68.1776 20.581 68.8974 22.5857 69.4458C23.8579 69.7943 25.1022 70.1525 26.3415 70.5498C27.061 71.9931 27.9639 73.354 29.2508 74.3137C30.8774 75.5289 32.8334 75.9386 34.8609 75.8939C34.9264 75.9022 34.9918 75.9106 35.0475 75.8913C37.1307 75.8272 39.2872 75.2956 41.2557 74.6737C42.5036 74.2773 43.7482 73.907 45.0139 73.5791C46.4108 74.4072 47.8965 75.0613 49.503 75.1878C51.5317 75.3418 53.4055 74.6283 55.0939 73.4936C55.1365 73.4726 55.1808 73.4385 55.2251 73.4045C56.9463 72.221 58.469 70.6148 59.8035 69.0241C60.6505 68.02 61.4811 67.0403 62.3623 66.0803C63.9791 66.0227 65.5932 65.7792 67.0073 65.02C68.7935 64.0568 69.9693 62.459 70.7809 60.5894C70.8154 60.5276 70.8352 60.4771 70.8566 60.4137C71.6471 58.5016 72.0586 56.329 72.3208 54.283C72.4862 52.9928 72.6516 51.7027 72.8824 50.4209C74.2233 49.5066 75.4386 48.4305 76.2049 47.0187C77.1913 45.2377 77.3127 43.2531 76.9711 41.2489L76.9694 41.2619Z" fill="#FFF7E9"/>
<path d="M35.0056 28.2036L33.9269 28.0654L34.0651 26.9867C34.1415 26.3904 33.7203 25.8461 33.1246 25.7698C32.5288 25.6935 31.984 26.1141 31.9077 26.7103L31.7695 27.789L30.6908 27.6508C30.0951 27.5745 29.5503 27.9951 29.4739 28.5914C29.3975 29.1876 29.8187 29.7319 30.4144 29.8082L31.4931 29.9464L31.3549 31.0251C31.2785 31.6214 31.6997 32.1657 32.2954 32.242C32.8912 32.3183 33.436 31.8978 33.5123 31.3015L33.6505 30.2228L34.7292 30.361C35.3249 30.4373 35.8697 30.0167 35.9461 29.4205C36.0225 28.8242 35.6013 28.2799 35.0056 28.2036Z" fill="#E25C35"/>
<path d="M50.7717 33.5123C50.6953 34.1086 51.1165 34.6529 51.7122 34.7292C52.3079 34.8055 52.8527 34.3849 52.9291 33.7887L53.0673 32.71L54.146 32.8482C54.7417 32.9245 55.2865 32.5039 55.3629 31.9076C55.4393 31.3114 55.0181 30.7671 54.4223 30.6908L53.3436 30.5526L53.4818 29.4739C53.5582 28.8776 53.137 28.3333 52.5413 28.257C51.9456 28.1807 51.4008 28.6012 51.3244 29.1975L51.1862 30.2762L50.1075 30.138C49.5118 30.0617 48.967 30.4823 48.8906 31.0785C48.8142 31.6748 49.2354 32.2191 49.8311 32.2954L50.9099 32.4336L50.7717 33.5123Z" fill="#E25C35"/>
<path d="M55.4744 39.597L54.3956 39.4588L54.5338 38.3801C54.6102 37.7839 54.189 37.2395 53.5933 37.1632C52.9976 37.0869 52.4528 37.5075 52.3764 38.1037L52.2382 39.1824L51.1595 39.0443C50.5638 38.9679 50.019 39.3885 49.9426 39.9848C49.8662 40.581 50.2874 41.1254 50.8831 41.2017L51.9619 41.3399L51.8237 42.4186C51.7473 43.0148 52.1685 43.5592 52.7642 43.6355C53.3599 43.7118 53.9047 43.2912 53.9811 42.6949L54.1193 41.6162L55.198 41.7544C55.7937 41.8307 56.3385 41.4101 56.4149 40.8139C56.4913 40.2177 56.0701 39.6733 55.4744 39.597Z" fill="#E25C35"/>
<path d="M31.8808 35.4779L30.8021 35.3397L30.9403 34.261C31.0167 33.6647 30.5955 33.1204 29.9998 33.0441C29.4041 32.9678 28.8593 33.3884 28.7829 33.9846L28.6447 35.0633L27.566 34.9251C26.9703 34.8488 26.4255 35.2694 26.3491 35.8656C26.2727 36.4619 26.6939 37.0062 27.2896 37.0825L28.3683 37.2207L28.2302 38.2994C28.1538 38.8957 28.575 39.44 29.1707 39.5163C29.7664 39.5926 30.3112 39.172 30.3876 38.5758L30.5258 37.4971L31.6045 37.6353C32.2002 37.7116 32.745 37.291 32.8214 36.6948C32.8977 36.0985 32.4766 35.5542 31.8808 35.4779Z" fill="#E25C35"/>
<path d="M27.9538 40.457L25.7964 40.1807L24.1382 53.1252L26.2956 53.4015C26.8914 53.4779 27.4362 53.0567 27.5125 52.461L28.8943 41.6739C28.9706 41.0782 28.5496 40.5334 27.9538 40.457Z" fill="#E25C35"/>
<path d="M54.5793 45.3348C53.8599 44.7695 52.9186 44.6286 52.066 44.9572L44.5156 47.8496C44.1803 49.1587 42.923 50.0509 41.5491 49.8749L37.2126 49.3194C36.9145 49.2812 36.7042 49.0091 36.7424 48.711C36.7806 48.4129 37.0527 48.2026 37.3508 48.2408L41.6872 48.7963C42.5795 48.9106 43.3983 48.2779 43.5125 47.3858C43.6247 46.5106 43.0161 45.7101 42.1506 45.572C41.8282 45.5269 36.6155 44.8578 36.6155 44.8578L35.01 42.7808C34.8336 42.5526 34.5738 42.4038 34.2878 42.3672L29.9729 41.8144L28.591 52.6021L30.4956 52.8461L33.8466 54.3695C35.2364 55.0213 36.7084 55.8324 38.4262 56.0524C39.9795 56.2514 41.5761 55.9324 43.0268 55.0894L54.1708 49.6065C54.9196 49.2228 55.4308 48.4961 55.5374 47.664C55.6525 46.7655 55.2945 45.8953 54.5793 45.3348Z" fill="#E25C35"/>
<path d="M43.8026 26.4868C43.4751 25.8507 42.5049 25.7264 42.0276 26.2594C41.3499 27.0154 35.3937 33.7342 34.9802 36.9615C34.5223 40.536 37.0531 43.8156 40.6221 44.2728C44.1911 44.73 47.4668 42.1942 47.9247 38.6198C48.3382 35.3924 44.2679 27.3892 43.8026 26.4868ZM45.0585 34.7078L41.1314 39.6868C41.0278 39.8191 40.8692 39.8952 40.7018 39.8941C40.6792 39.8944 40.657 39.8926 40.6354 39.8898C40.4932 39.8716 40.3628 39.7982 40.2743 39.683L38.3932 37.2492C38.2095 37.0115 38.2533 36.6702 38.4909 36.4865C38.7286 36.3028 39.0699 36.3465 39.2536 36.5842L40.709 38.4667L44.2046 34.0352C44.3905 33.7999 44.7318 33.7558 44.9683 33.9446C45.2042 34.1301 45.2444 34.4725 45.0585 34.7078Z" fill="#E25C35"/>
</svg>
