<svg width="76" height="76" viewBox="0 0 76 76" fill="none" xmlns="http://www.w3.org/2000/svg">
<path d="M73.6163 32.3275C73.6163 32.3275 73.5861 32.2367 73.5713 32.1978C72.8705 30.241 71.6967 28.343 70.492 26.6566C69.7349 25.5831 68.9916 24.5222 68.2999 23.4328C68.6709 21.8528 68.8425 20.2415 68.4621 18.6923C67.9853 16.7263 66.7332 15.1734 65.1371 13.9239C65.0959 13.8861 65.0416 13.8489 65.0004 13.8111C63.351 12.5506 61.3443 11.5941 59.4243 10.8181C58.2026 10.3291 57.0068 9.8258 55.8225 9.28263C55.2718 7.76671 54.5387 6.31086 53.384 5.20105C51.9138 3.80172 50.0128 3.16959 47.9847 2.97661C47.9314 2.96564 47.8649 2.95522 47.8122 2.95738C45.7324 2.79282 43.5253 3.06741 41.4944 3.45312C40.2101 3.68987 38.9258 3.92663 37.6388 4.09775C36.3571 3.11148 34.9501 2.28815 33.3663 1.9849C31.3702 1.60651 29.4359 2.09346 27.6253 3.02242C27.5732 3.03771 27.5215 3.06612 27.4698 3.09454C25.6346 4.06396 23.9236 5.48853 22.4109 6.91811C21.4572 7.81194 20.503 8.69264 19.5213 9.54816C17.905 9.41719 16.2699 9.47108 14.776 10.0715C12.892 10.8193 11.5259 12.2824 10.5018 14.0338C10.4644 14.0879 10.4396 14.1284 10.4154 14.182C9.39342 15.9859 8.72762 18.104 8.22888 20.1101C7.91091 21.3723 7.59294 22.6346 7.22117 23.8727C5.78647 24.6285 4.45104 25.5511 3.51458 26.865C2.3274 28.5048 1.97205 30.4655 2.05494 32.4871C2.05709 32.5396 2.05979 32.6053 2.06194 32.6578C2.18653 34.7303 2.77573 36.8627 3.45021 38.8206C3.87045 40.0526 4.2775 41.2851 4.64555 42.5324C3.84522 43.9459 3.23321 45.4438 3.15334 47.0381C3.05168 49.0673 3.81359 50.9034 5.00351 52.5509C5.03203 52.6023 5.06001 52.6406 5.10171 52.6915C6.33226 54.3636 7.99083 55.8473 9.61495 57.1351C10.6386 57.9478 11.6491 58.7611 12.6348 59.6149C12.7274 61.2285 13.0171 62.8208 13.8267 64.2078C14.8495 65.9674 16.4804 67.0971 18.3735 67.8611C18.4273 67.8851 18.4811 67.9092 18.5212 67.9207C20.4666 68.6694 22.6599 69.0266 24.7282 69.231C26.0408 69.3613 27.3275 69.5058 28.6159 69.6897C29.5672 70.9919 30.6855 72.1821 32.1152 72.9125C33.9225 73.8378 35.9195 73.9137 37.9108 73.5296C37.9767 73.5269 38.0426 73.5242 38.0943 73.4958C40.1372 73.0832 42.174 72.1976 44.0104 71.2544C45.1742 70.6544 46.339 70.0807 47.5319 69.5453C49.0478 70.1274 50.6222 70.5231 52.2272 70.3784C54.2529 70.1901 55.9806 69.1725 57.4548 67.7708C57.4933 67.7429 57.5313 67.7019 57.5692 67.6609C59.0676 66.2056 60.2995 64.3668 61.3484 62.5749C62.015 61.443 62.6695 60.3379 63.3773 59.2437C64.9616 58.9158 66.512 58.4051 67.7788 57.4196C69.3781 56.1705 70.2694 54.3982 70.756 52.419C70.7797 52.3523 70.7907 52.2992 70.8012 52.2331C71.2599 50.2155 71.3013 48.0047 71.2168 45.9437C71.1635 44.644 71.1102 43.3444 71.1228 42.0421C72.2914 40.9159 73.3092 39.6513 73.8278 38.1309C74.5017 36.2098 74.2886 34.2329 73.6157 32.3144L73.6163 32.3275Z" fill="#FFF7E9"/>
<mask id="path-2-inside-1_373_3924" fill="white">
<path d="M47.8006 44.2617C45.8991 46.2244 43.4279 47.6249 40.6433 48.1738L45.9475 54.8521L47.1412 50.4391C47.2201 50.1492 47.5047 49.9634 47.8006 50.016L53.1542 51.0029L47.8006 44.2617ZM36.4668 48.3452C33.6464 48.0248 31.0688 46.8346 29.013 45.0327L24.2313 52.19L29.4664 50.7732C29.758 50.6826 30.0718 50.8408 30.1777 51.1339L31.7291 55.4342L36.4682 48.3438L36.4668 48.3452ZM39.58 28.0159L40.5976 29.6785C40.6754 29.8047 40.772 29.9087 40.8826 29.9827C40.9932 30.0583 41.1255 30.1099 41.2688 30.1333L43.1683 30.4483C43.5556 30.5126 43.9028 30.6724 44.1866 30.9089L44.2259 30.9458C44.4929 31.1799 44.6977 31.4828 44.8272 31.8365C44.9637 32.21 44.9977 32.5954 44.9355 32.9617C44.8734 33.3294 44.7122 33.6812 44.4583 33.9875L43.2206 35.4854C43.1268 35.5987 43.0608 35.7247 43.0227 35.8649C42.9903 35.9972 42.9853 36.1346 43.0062 36.2755L43.3007 38.2113C43.3607 38.6034 43.319 38.9888 43.1833 39.3365C43.0477 39.6857 42.8213 39.997 42.5165 40.2438C42.2116 40.489 41.8605 40.6406 41.4948 40.6941C41.1305 40.7476 40.7546 40.6998 40.3942 40.5513L38.6106 39.8139C38.475 39.7578 38.3377 39.7311 38.2031 39.7366C38.0701 39.742 37.9353 39.7784 37.8034 39.847L36.0877 40.728C35.7407 40.9071 35.3684 40.984 35.0025 40.9605C34.6321 40.9372 34.2713 40.8149 33.9473 40.5954L33.9036 40.5618C33.5979 40.3447 33.3623 40.0647 33.2083 39.7443C33.0461 39.4073 32.973 39.0281 32.9992 38.6326L33.134 36.6791C33.146 36.5276 33.1266 36.3866 33.0805 36.2606C33.0328 36.1316 32.9583 36.0129 32.8541 35.9078L31.4978 34.5164C31.2196 34.2304 31.0318 33.896 30.9362 33.5224C30.8469 33.1562 30.8526 32.7784 30.9553 32.4028C31.0593 32.0225 31.2546 31.6893 31.5195 31.4288C31.7813 31.1684 32.1157 30.979 32.4965 30.8848L34.3638 30.4152C34.5047 30.3801 34.6309 30.3179 34.7364 30.2335C34.8405 30.1506 34.9268 30.0392 34.9955 29.9069L35.8735 28.1665C36.0512 27.8125 36.309 27.526 36.6187 27.3253C36.9299 27.123 37.2915 27.0064 37.68 26.9905C38.0685 26.9746 38.4384 27.0611 38.7651 27.2372C39.0903 27.4119 39.3691 27.6763 39.5768 28.0145L39.58 28.0159ZM39.6162 30.3013L38.5986 28.6387C38.5029 28.4823 38.3752 28.3597 38.2281 28.2809C38.0856 28.202 37.9145 28.1644 37.7316 28.1719C37.5472 28.1794 37.3812 28.2309 37.2441 28.3213C37.1055 28.4118 36.9898 28.5429 36.9072 28.7081L36.0293 30.4485C35.8836 30.7365 35.6921 30.9755 35.459 31.1623C35.2274 31.349 34.9528 31.4836 34.6456 31.5609L32.7783 32.0305C32.6014 32.0747 32.4505 32.1611 32.3297 32.2785C32.2117 32.3928 32.124 32.5443 32.0754 32.7251C32.0295 32.898 32.0244 33.0678 32.063 33.2342C32.108 33.408 32.1946 33.5616 32.3195 33.6906L33.6757 35.082C33.9001 35.3116 34.0652 35.5714 34.1677 35.8539C34.2718 36.1409 34.3132 36.4474 34.2913 36.7642L34.1565 38.7176C34.1445 38.9046 34.1759 39.0789 34.2486 39.2285C34.3165 39.3706 34.4231 39.4957 34.573 39.6051C34.7411 39.7184 34.9056 39.7779 35.068 39.7867C35.2319 39.7969 35.4045 39.7605 35.5676 39.6752L37.2833 38.7942C37.565 38.6486 37.8585 38.5703 38.1548 38.5581C38.4511 38.546 38.7501 38.6015 39.0427 38.722L40.8263 39.4594C40.9973 39.5295 41.1709 39.5532 41.3334 39.528C41.4944 39.5044 41.6535 39.4332 41.7972 39.3179C41.9408 39.2026 42.044 39.0612 42.1043 38.9061C42.1645 38.7496 42.183 38.5731 42.1543 38.3894L41.8598 36.4536C41.8141 36.1519 41.8276 35.8524 41.9046 35.5533C41.9889 35.2463 42.1322 34.9753 42.3355 34.7266L43.5732 33.2287C43.6886 33.0884 43.7622 32.9282 43.7917 32.7605C43.8197 32.5945 43.8034 32.4179 43.7402 32.2448C43.6805 32.0809 43.5901 31.9428 43.4628 31.8309C43.3202 31.7135 43.1613 31.6399 42.9829 31.6102L41.0834 31.2952C40.7708 31.2433 40.4877 31.1316 40.2401 30.9646C39.9925 30.7975 39.7819 30.5734 39.6132 30.2999L39.6162 30.3013ZM46.5235 24.9831C44.1489 22.7567 40.9399 21.4505 37.4603 21.5933C33.9822 21.7361 30.8909 23.3007 28.7053 25.7143C26.5211 28.1279 25.2423 31.3918 25.3877 34.9333C25.5329 38.4733 27.0748 41.6216 29.4496 43.8493C31.8242 46.0758 35.0332 47.3819 38.5128 47.2391C41.9909 47.0964 45.0822 45.5317 47.2678 43.1181C49.452 40.7046 50.7308 37.4406 50.5854 33.8992C50.4402 30.3592 48.8983 27.2109 46.5235 24.9831Z"/>
</mask>
<path d="M47.8006 44.2617C45.8991 46.2244 43.4279 47.6249 40.6433 48.1738L45.9475 54.8521L47.1412 50.4391C47.2201 50.1492 47.5047 49.9634 47.8006 50.016L53.1542 51.0029L47.8006 44.2617ZM36.4668 48.3452C33.6464 48.0248 31.0688 46.8346 29.013 45.0327L24.2313 52.19L29.4664 50.7732C29.758 50.6826 30.0718 50.8408 30.1777 51.1339L31.7291 55.4342L36.4682 48.3438L36.4668 48.3452ZM39.58 28.0159L40.5976 29.6785C40.6754 29.8047 40.772 29.9087 40.8826 29.9827C40.9932 30.0583 41.1255 30.1099 41.2688 30.1333L43.1683 30.4483C43.5556 30.5126 43.9028 30.6724 44.1866 30.9089L44.2259 30.9458C44.4929 31.1799 44.6977 31.4828 44.8272 31.8365C44.9637 32.21 44.9977 32.5954 44.9355 32.9617C44.8734 33.3294 44.7122 33.6812 44.4583 33.9875L43.2206 35.4854C43.1268 35.5987 43.0608 35.7247 43.0227 35.8649C42.9903 35.9972 42.9853 36.1346 43.0062 36.2755L43.3007 38.2113C43.3607 38.6034 43.319 38.9888 43.1833 39.3365C43.0477 39.6857 42.8213 39.997 42.5165 40.2438C42.2116 40.489 41.8605 40.6406 41.4948 40.6941C41.1305 40.7476 40.7546 40.6998 40.3942 40.5513L38.6106 39.8139C38.475 39.7578 38.3377 39.7311 38.2031 39.7366C38.0701 39.742 37.9353 39.7784 37.8034 39.847L36.0877 40.728C35.7407 40.9071 35.3684 40.984 35.0025 40.9605C34.6321 40.9372 34.2713 40.8149 33.9473 40.5954L33.9036 40.5618C33.5979 40.3447 33.3623 40.0647 33.2083 39.7443C33.0461 39.4073 32.973 39.0281 32.9992 38.6326L33.134 36.6791C33.146 36.5276 33.1266 36.3866 33.0805 36.2606C33.0328 36.1316 32.9583 36.0129 32.8541 35.9078L31.4978 34.5164C31.2196 34.2304 31.0318 33.896 30.9362 33.5224C30.8469 33.1562 30.8526 32.7784 30.9553 32.4028C31.0593 32.0225 31.2546 31.6893 31.5195 31.4288C31.7813 31.1684 32.1157 30.979 32.4965 30.8848L34.3638 30.4152C34.5047 30.3801 34.6309 30.3179 34.7364 30.2335C34.8405 30.1506 34.9268 30.0392 34.9955 29.9069L35.8735 28.1665C36.0512 27.8125 36.309 27.526 36.6187 27.3253C36.9299 27.123 37.2915 27.0064 37.68 26.9905C38.0685 26.9746 38.4384 27.0611 38.7651 27.2372C39.0903 27.4119 39.3691 27.6763 39.5768 28.0145L39.58 28.0159ZM39.6162 30.3013L38.5986 28.6387C38.5029 28.4823 38.3752 28.3597 38.2281 28.2809C38.0856 28.202 37.9145 28.1644 37.7316 28.1719C37.5472 28.1794 37.3812 28.2309 37.2441 28.3213C37.1055 28.4118 36.9898 28.5429 36.9072 28.7081L36.0293 30.4485C35.8836 30.7365 35.6921 30.9755 35.459 31.1623C35.2274 31.349 34.9528 31.4836 34.6456 31.5609L32.7783 32.0305C32.6014 32.0747 32.4505 32.1611 32.3297 32.2785C32.2117 32.3928 32.124 32.5443 32.0754 32.7251C32.0295 32.898 32.0244 33.0678 32.063 33.2342C32.108 33.408 32.1946 33.5616 32.3195 33.6906L33.6757 35.082C33.9001 35.3116 34.0652 35.5714 34.1677 35.8539C34.2718 36.1409 34.3132 36.4474 34.2913 36.7642L34.1565 38.7176C34.1445 38.9046 34.1759 39.0789 34.2486 39.2285C34.3165 39.3706 34.4231 39.4957 34.573 39.6051C34.7411 39.7184 34.9056 39.7779 35.068 39.7867C35.2319 39.7969 35.4045 39.7605 35.5676 39.6752L37.2833 38.7942C37.565 38.6486 37.8585 38.5703 38.1548 38.5581C38.4511 38.546 38.7501 38.6015 39.0427 38.722L40.8263 39.4594C40.9973 39.5295 41.1709 39.5532 41.3334 39.528C41.4944 39.5044 41.6535 39.4332 41.7972 39.3179C41.9408 39.2026 42.044 39.0612 42.1043 38.9061C42.1645 38.7496 42.183 38.5731 42.1543 38.3894L41.8598 36.4536C41.8141 36.1519 41.8276 35.8524 41.9046 35.5533C41.9889 35.2463 42.1322 34.9753 42.3355 34.7266L43.5732 33.2287C43.6886 33.0884 43.7622 32.9282 43.7917 32.7605C43.8197 32.5945 43.8034 32.4179 43.7402 32.2448C43.6805 32.0809 43.5901 31.9428 43.4628 31.8309C43.3202 31.7135 43.1613 31.6399 42.9829 31.6102L41.0834 31.2952C40.7708 31.2433 40.4877 31.1316 40.2401 30.9646C39.9925 30.7975 39.7819 30.5734 39.6132 30.2999L39.6162 30.3013ZM46.5235 24.9831C44.1489 22.7567 40.9399 21.4505 37.4603 21.5933C33.9822 21.7361 30.8909 23.3007 28.7053 25.7143C26.5211 28.1279 25.2423 31.3918 25.3877 34.9333C25.5329 38.4733 27.0748 41.6216 29.4496 43.8493C31.8242 46.0758 35.0332 47.3819 38.5128 47.2391C41.9909 47.0964 45.0822 45.5317 47.2678 43.1181C49.452 40.7046 50.7308 37.4406 50.5854 33.8992C50.4402 30.3592 48.8983 27.2109 46.5235 24.9831Z" fill="#E25C35" stroke="#FFF7E9" stroke-width="0.6" mask="url(#path-2-inside-1_373_3924)"/>
</svg>
