<svg width="76" height="76" viewBox="0 0 76 76" fill="none" xmlns="http://www.w3.org/2000/svg">
<path d="M72.883 32.906C72.883 32.906 72.8525 32.8153 72.8375 32.7765C72.1288 30.8225 70.9473 28.9293 69.7357 27.2478C68.9743 26.1774 68.2267 25.1195 67.5306 24.0329C67.8952 22.4514 68.0602 20.8395 67.6735 19.2918C67.1888 17.3277 65.9305 15.7799 64.3293 14.5369C64.2879 14.4993 64.2335 14.4623 64.1921 14.4247C62.5376 13.1709 60.5271 12.2225 58.6039 11.4543C57.3803 10.9702 56.1824 10.4718 54.996 9.93346C54.4391 8.41978 53.7001 6.96692 52.5409 5.86179C51.065 4.46845 49.1615 3.84403 47.1326 3.65927C47.0793 3.64852 47.0128 3.63837 46.9601 3.64074C44.8796 3.48461 42.6736 3.76815 40.6443 4.16209C39.361 4.40405 38.0776 4.64602 36.7913 4.82235C35.5057 3.84129 34.0953 3.02367 32.5104 2.72684C30.5127 2.35655 28.5804 2.85134 26.7736 3.78763C26.7215 3.80313 26.67 3.83176 26.6184 3.86039C24.7871 4.83724 23.0819 6.26873 21.575 7.70444C20.625 8.60212 19.6743 9.48668 18.6961 10.3462C17.0793 10.2218 15.4444 10.2823 13.953 10.8887C12.072 11.6442 10.7119 13.1128 9.69485 14.8684C9.65768 14.9226 9.63309 14.9632 9.6091 15.0169C8.59442 16.825 7.93721 18.9457 7.44661 20.9538C7.13376 22.2173 6.82091 23.4808 6.45417 24.7205C5.02254 25.4821 3.69087 26.4101 2.75974 27.7278C1.57922 29.3724 1.23182 31.3345 1.32291 33.3558C1.32528 33.4083 1.32823 33.4739 1.3306 33.5264C1.46359 35.5984 2.06144 37.7284 2.74385 39.6836C3.16908 40.9138 3.58113 42.1447 3.95423 43.3905C3.15964 44.8072 2.55371 46.3075 2.4803 47.9022C2.38687 49.9318 3.15622 51.7647 4.35281 53.4074C4.38154 53.4587 4.40967 53.4969 4.45158 53.5476C5.6889 55.2147 7.35347 56.6917 8.9828 57.9729C10.0097 58.7815 11.0235 59.5907 12.0127 60.4404C12.1118 62.0536 12.408 63.6448 13.2232 65.0285C14.2531 66.7839 15.8886 67.907 17.7848 68.6632C17.8387 68.6871 17.8926 68.711 17.9327 68.7223C19.8811 69.4631 22.0759 69.8114 24.145 70.0075C25.4581 70.1324 26.7454 70.2717 28.0345 70.4503C28.9911 71.7487 30.1142 72.9344 31.5468 73.6589C33.3579 74.5769 35.3551 74.6447 37.3449 74.2525C37.4108 74.2495 37.4767 74.2466 37.5282 74.2179C39.5695 73.7972 41.6027 72.9033 43.4352 71.9527C44.5965 71.3479 45.7591 70.7695 46.9497 70.2292C48.4681 70.8052 50.044 71.1945 51.6484 71.0433C53.6734 70.8468 55.3969 69.8222 56.8654 68.4145C56.9038 68.3865 56.9416 68.3454 56.9793 68.3042C58.4719 66.8428 59.6962 64.999 60.7379 63.2029C61.3999 62.0683 62.0499 60.9605 62.7533 59.8635C64.3362 59.5292 65.8845 59.0122 67.1473 58.0215C68.7416 56.766 69.6257 54.9901 70.1043 53.0089C70.1277 52.9421 70.1385 52.889 70.1487 52.8228C70.5992 50.8034 70.6316 48.5924 70.5387 46.5318C70.4802 45.2324 70.4216 43.933 70.429 42.6306C71.593 41.4997 72.6056 40.2309 73.1181 38.7085C73.7841 36.7846 73.563 34.8087 72.8824 32.8929L72.883 32.906Z" fill="#FFF7E9"/>
<path d="M42.0192 37.4407L41.5152 26.2561L48.4976 25.9415C48.6207 25.9359 48.7645 25.9994 48.8564 26.0826L49.0304 26.4245L49.9928 47.7816C50.0054 48.0608 49.7686 48.2813 49.5047 48.2932L26.5175 49.329C26.3768 49.3353 26.2513 49.2885 26.1594 49.2052L25.9854 48.8634L25.023 27.5063C25.0105 27.2271 25.2465 26.9891 25.5103 26.9773L32.4927 26.6626L32.9974 37.8647C33.0383 38.772 34.1371 39.2995 34.8995 38.6182L37.4449 36.4404L40.2477 38.4122C41.0116 38.9372 42.0601 38.348 42.0192 37.4407Z" fill="#E25C35"/>
<path d="M35.1441 35.4426L34.7439 26.5612L39.2816 26.3567L39.6825 35.2555C37.0435 33.3988 37.5711 33.375 35.1441 35.4426Z" fill="#E25C35"/>
</svg>
