<svg width="20" height="20" viewBox="0 0 20 20" fill="none" xmlns="http://www.w3.org/2000/svg">
<g clip-path="url(#clip0_188_31)">
<path d="M10 10.1529C10.4812 10.1529 10.8934 9.99307 11.2364 9.67348C11.5788 9.35443 11.75 8.9707 11.75 8.52229C11.75 8.07389 11.5788 7.68989 11.2364 7.37029C10.8934 7.05124 10.4812 6.89172 10 6.89172C9.51875 6.89172 9.10692 7.05124 8.7645 7.37029C8.4215 7.68989 8.25 8.07389 8.25 8.52229C8.25 8.9707 8.4215 9.35443 8.7645 9.67348C9.10692 9.99307 9.51875 10.1529 10 10.1529ZM10 18C9.88333 18 9.76667 17.9796 9.65 17.9389C9.53333 17.8981 9.43125 17.8437 9.34375 17.7758C7.21458 16.0229 5.625 14.3959 4.575 12.8947C3.525 11.3929 3 9.98981 3 8.68535C3 6.64713 3.70379 5.02335 5.11138 3.81401C6.51838 2.60467 8.14792 2 10 2C11.8521 2 13.4816 2.60467 14.8886 3.81401C16.2962 5.02335 17 6.64713 17 8.68535C17 9.98981 16.475 11.3929 15.425 12.8947C14.375 14.3959 12.7854 16.0229 10.6562 17.7758C10.5688 17.8437 10.4667 17.8981 10.35 17.9389C10.2333 17.9796 10.1167 18 10 18Z" fill="#D94426"/>
</g>
<defs>
<clipPath id="clip0_188_31">
<rect width="14" height="16" fill="white" transform="translate(3 2)"/>
</clipPath>
</defs>
</svg>
