<svg width="163" height="73" viewBox="0 0 163 73" fill="none" xmlns="http://www.w3.org/2000/svg">
<path d="M81.5622 12.4694C77.2815 12.4694 75.2845 13.874 72.8384 16.6259V12.4694H72.6759H66.6945V50.1451H72.9435V38.335C74.7589 40.2078 77.1095 41.0582 79.89 41.0582C87.1041 41.0582 91.8243 36.2997 91.7574 25.8752C91.7001 16.5876 87.8685 12.4598 81.5622 12.4598V12.4694ZM78.8198 35.9271C75.1316 35.9271 72.8384 33.3472 72.8384 26.7733C72.8384 21.2505 75.036 16.7405 79.2594 16.7405C83.1101 16.7405 85.2886 19.2726 85.2886 26.63C85.2886 33.2612 82.8807 35.9271 78.8198 35.9271Z" fill="#D94426"/>
<path d="M105.45 11.6092C98.2358 11.6092 94.3374 15.0872 94.3374 21.814H100.319C100.319 18.2882 101.972 16.6829 105.345 16.6829C108.718 16.6829 110.046 18.4506 110.046 23.1995V24.4798H105.45C96.8981 24.4798 93.4774 27.6904 93.4774 33.3565C93.4774 38.3825 96.1528 41.1057 101.064 41.1057C105.498 41.1057 108.412 40.7713 109.989 35.8695V40.3126H116.132V23.6772C116.132 14.8579 112.712 11.5996 105.44 11.5996L105.45 11.6092ZM103.472 36.2995C100.959 36.2995 99.7838 35.0669 99.7838 32.4488C99.7838 29.4007 101.599 27.8528 106.195 27.8528H109.989C109.721 33.2514 106.893 36.2995 103.472 36.2995Z" fill="#D94426"/>
<path d="M127.847 0.916992H123.356C123.299 7.54821 122.611 12.0869 117.642 12.1442V17.0077H121.541V30.5282C121.541 37.8474 124.426 40.8476 131.21 40.8476C132.921 40.8476 134.469 40.6374 135.749 40.3126V34.9139C134.841 35.2388 133.828 35.3917 132.758 35.3917C129.175 35.3917 127.837 34.1591 127.837 29.3529V17.0077H135.749V11.6091H127.837V0.916992H127.847Z" fill="#D94426"/>
<path d="M154.133 11.7142C151.085 11.7142 148.505 12.3926 146.852 14.0457C145.657 15.2114 145.782 15.0203 144.616 16.7115V11.3607C144.616 11.074 144.616 10.7683 144.616 10.4243V0.916992H138.367V40.303H144.616V30.2033C144.616 25.3971 145.208 21.5464 147.291 19.4634C148.362 18.4506 149.804 17.8581 151.62 17.8581C155.041 17.8581 156.751 19.7309 156.751 24.5945V40.303H163V22.2344C163 14.6954 159.579 11.7047 154.133 11.7047V11.7142Z" fill="#D94426"/>
<path d="M10.501 -0.00012207H5.88593C5.8286 6.81265 5.11196 11.4946 0 11.5424V16.5493H4.01313V30.4615C4.01313 37.9909 6.98476 41.0771 13.96 41.0771C15.7181 41.0771 17.3138 40.8574 18.6324 40.5229V34.9715C17.696 35.3059 16.6545 35.4683 15.5557 35.4683C11.877 35.4683 10.501 34.207 10.501 29.2575V16.5588H18.642V11.0073H10.501V-0.00012207Z" fill="#D94426"/>
<path d="M56.6806 22.5596C56.6806 27.3658 56.0882 31.2165 54.0052 33.2995C52.9923 34.3697 51.4922 34.9048 49.6194 34.9048C46.256 34.9048 44.5456 33.0893 44.5456 28.1684V17.0177C40.6854 19.1007 39.8732 20.2473 38.2966 22.015V30.519C38.2966 38.0579 41.7173 41.0487 47.1733 41.0487C47.6893 41.0487 48.1957 41.0582 48.7117 41.0678C51.3393 41.0964 54.1772 40.504 55.8971 38.3255C56.2697 37.8573 56.5564 37.3317 56.7953 36.7776V41.0582H56.9577H62.9392V13.0619C60.6651 13.0427 58.5916 13.1765 56.6901 13.425V22.55L56.6806 22.5596Z" fill="#D94426"/>
<path d="M29.7643 16.3965V11.0457H23.9261V41.0677H29.7643V32.4013C29.7643 25.0725 34.2743 8.76204 62.9395 8.76204V3.49719C52.9067 3.49719 38.0103 5.64708 29.7643 16.3965Z" fill="#D94426"/>
<path d="M27.2893 49.8777C27.2129 49.5528 27.1269 49.2566 27.0504 48.9413H0L0.0764406 49.2375C0.219767 49.7726 0.372648 50.3172 0.506419 50.8523H7.9116C7.9116 50.8523 7.98804 50.8714 8.01671 50.9001C8.04537 50.9287 8.05493 50.967 8.05493 51.0052L7.90205 53.2028C7.90205 53.2697 7.84472 53.3271 7.76828 53.3366C7.3383 53.3653 6.90832 53.3844 6.50701 53.4035C5.67571 53.4513 4.88264 53.4895 4.10868 53.6137C2.30277 53.9099 1.32816 55.1043 1.38549 56.9867C1.44282 58.9454 2.36966 60.4456 4.22334 61.554C4.35711 61.64 4.50999 61.7164 4.65332 61.8024C4.77754 61.8789 4.91131 61.9457 5.04508 62.0317C5.0833 62.0508 5.11196 62.0986 5.11196 62.1464C5.11196 62.1942 5.09285 62.2324 5.06419 62.2706C3.99402 63.1497 2.99074 63.9714 1.93968 64.8123C2.48432 65.2518 3.00985 65.6818 3.52582 66.1118L4.27112 66.7137L5.51328 65.0894C6.16302 64.2581 6.80321 63.4172 7.46251 62.5764C7.49118 62.5382 7.5294 62.519 7.56762 62.519C7.60584 62.519 7.65361 62.5382 7.68228 62.5668C8.70467 63.6848 9.67929 64.7836 10.673 65.8824L11.3037 66.5895C11.5807 66.2742 11.8292 66.0066 12.0872 65.72L12.5076 65.2614C11.533 64.3918 10.6252 63.5701 9.63151 62.6719C9.59329 62.6337 9.57418 62.5859 9.58374 62.5382C9.60285 62.4808 9.64107 62.4426 9.68885 62.433C10.8546 62.0891 12.1732 61.6113 13.1669 60.5029C12.5267 59.7099 11.8961 58.955 11.2654 58.2001C11.1221 58.3339 10.9788 58.4677 10.8546 58.5824C10.501 58.9072 10.157 59.213 9.79395 59.4996C8.81933 60.264 7.86383 60.6558 6.84143 60.7227C4.95908 60.8565 4.66288 60.608 4.424 58.7639C4.38578 58.439 4.34756 58.0855 4.35711 57.7415C4.37622 56.4516 4.97819 55.7158 6.23946 55.4292C6.68855 55.3241 7.17586 55.3145 7.64406 55.305C8.50402 55.2859 9.36397 55.2954 10.2717 55.2954H11.0552V51.0147C11.0552 50.9383 11.1221 50.8714 11.1985 50.8714H15.1257C15.2021 50.8714 15.269 50.9383 15.269 51.0147V52.1231C15.269 53.0404 15.269 53.9004 15.269 54.7699C15.2308 56.1076 15.7563 57.1491 16.8934 57.9422C18.04 58.7639 19.3013 59.127 20.639 59.0314C21.0498 59.0028 21.4607 58.9454 21.8907 58.8786L22.3398 58.8117C22.3398 58.8117 22.4258 58.8117 22.4544 58.8499C22.4831 58.8786 22.5022 58.9168 22.5022 58.955V60.5603C22.5022 61.0953 22.5022 61.6304 22.5022 62.1751C22.5022 62.2611 22.5022 62.3471 22.5022 62.4426V62.5955C22.5595 62.5955 22.6264 62.6146 22.6933 62.6242C23.7157 62.8344 24.6616 63.0063 25.6172 63.1879V50.9574C25.6172 50.881 25.684 50.8141 25.7605 50.8141H27.5186C27.4326 50.4892 27.3562 50.1834 27.2797 49.8777H27.2893ZM22.5022 54.9323C22.4735 55.5247 21.9958 56.2509 21.2409 56.8147C20.6294 57.2733 19.9701 57.5409 19.435 57.5409C19.3204 57.5409 19.2057 57.5217 19.1006 57.5026C18.8522 57.4262 18.5751 57.0535 18.5464 56.7764C18.4413 55.7732 18.4126 54.7699 18.3935 54.0055C18.3935 53.3653 18.3935 52.7251 18.3935 52.0562V51.0147C18.3935 50.9383 18.4604 50.8714 18.5368 50.8714H22.378C22.4544 50.8714 22.5213 50.9383 22.5213 51.0147C22.5213 51.4256 22.5213 51.8365 22.5213 52.2378C22.5213 53.1646 22.5213 54.0246 22.5022 54.9228V54.9323Z" fill="#D94426"/>
<path d="M13.2335 71.1663L12.7844 71.6154L11.5231 70.5739C10.5676 69.7999 10.3861 69.6471 10.3096 69.5802C9.14392 68.6056 8.05464 68.2425 6.88893 68.424C6.23918 68.5291 5.79009 68.8062 5.60855 69.2266C5.513 69.456 5.49388 69.6662 5.55122 69.8764C5.65632 70.2968 6.06719 70.6312 6.59272 70.7077C7.01314 70.8032 7.47179 70.8032 7.89221 70.7077C8.22664 70.6312 8.54195 70.507 8.83816 70.335L9.55479 72.0645C9.16303 72.2556 8.74261 72.3894 8.30308 72.4467C7.86354 72.5136 7.39534 72.5136 6.95581 72.4467C6.56405 72.3798 5.513 72.2174 4.71992 71.3956C4.00329 70.6599 3.47776 69.3795 3.89819 68.1947C4.55749 66.3697 6.89848 66.2168 6.92715 66.2168C7.0227 66.2168 7.11825 66.2168 7.2138 66.2168C7.56734 66.2168 7.91132 66.255 8.2553 66.341C8.95282 66.5034 9.67901 66.8952 10.4243 67.5067C11.5231 68.4145 12.5073 69.6757 13.2622 71.1663H13.2335Z" fill="#D94426"/>
<path d="M43.1029 49.008H36.2901L36.8443 50.8139L38.3444 50.8903C38.4209 50.8903 38.4878 50.9572 38.4878 51.0337C38.4878 51.3776 38.4878 51.7216 38.4878 52.0752C38.4878 52.8969 38.5069 53.7569 38.4495 54.5786C38.4018 55.257 38.1916 55.9067 37.8667 56.3463C37.8189 56.4227 37.7616 56.4992 37.7042 56.5756C37.0736 57.3591 36.2519 57.9038 35.3155 58.1617C34.2453 58.4579 33.3567 58.2382 32.9172 58.1331C32.6783 58.0757 32.4585 57.9993 32.2387 57.9133C32.191 57.8942 32.1528 57.8464 32.1528 57.7891C32.1528 57.7318 32.1719 57.684 32.2292 57.6553C33.1847 57.1585 34.5033 56.2603 35.3346 54.8557C35.8697 53.9288 35.9366 53.2218 35.9461 52.9638C35.9461 52.5434 35.8601 52.1038 35.6881 51.6739C34.8759 49.6768 32.5732 48.2722 30.4615 48.5016C29.334 48.6258 28.6078 49.094 28.2734 49.9539C27.9007 50.919 28.0823 51.8554 28.7798 52.6102C29.162 53.0116 29.678 53.3364 30.1749 53.6422L30.4233 53.7951C30.6048 53.9002 30.815 53.9766 31.0921 54.0626C31.245 54.1104 31.417 54.1582 31.5986 54.2251C31.6463 54.2442 31.6846 54.2919 31.6941 54.3493C31.6941 54.4066 31.6654 54.4639 31.6177 54.4926L28.5696 56.117C28.9136 57.512 29.8882 58.7064 31.3215 59.509C33.3185 60.627 35.9174 60.8085 38.268 60.0059C38.3158 59.9868 38.3635 59.9963 38.4018 60.025C38.44 60.0536 38.4591 60.1014 38.4591 60.1492C38.4209 60.7798 38.4018 61.4391 38.3922 62.0889V62.4424L38.9082 62.5666L41.5549 63.0922V50.9572C41.5549 50.8808 41.6218 50.8139 41.6983 50.8139H43.5328L43.0742 49.0175L43.1029 49.008ZM31.0635 51.2725C31.0635 50.6037 31.3979 50.1546 31.9712 49.973C32.3343 49.8584 32.6114 49.8679 32.8216 49.9922C33.0318 50.1259 33.1656 50.3648 33.2229 50.747C33.3949 51.7312 33.156 52.6198 32.5158 53.4798C32.4872 53.518 32.4394 53.5371 32.4012 53.5371C32.3725 53.5371 32.3439 53.5275 32.3152 53.5084C31.4552 52.916 31.0539 52.1803 31.0635 51.2725Z" fill="#D94426"/>
</svg>
