<svg width="180" height="81" viewBox="0 0 180 81" fill="none" xmlns="http://www.w3.org/2000/svg">
<path d="M90.0685 13.7703C85.3413 13.7703 83.1361 15.3214 80.4348 18.3603V13.7703H80.2555H73.6501V55.3754H80.5509V42.3336C82.5557 44.4017 85.1514 45.3408 88.2219 45.3408C96.1884 45.3408 101.401 40.0861 101.327 28.5742C101.264 18.3181 97.0325 13.7598 90.0685 13.7598V13.7703ZM87.0401 39.6745C82.9672 39.6745 80.4348 36.8256 80.4348 29.5661C80.4348 23.4673 82.8617 18.4869 87.5255 18.4869C91.7778 18.4869 94.1836 21.2831 94.1836 29.4078C94.1836 36.7306 91.5246 39.6745 87.0401 39.6745Z" fill="#FFF7E9"/>
<path d="M116.448 12.8199C108.481 12.8199 104.176 16.6607 104.176 24.089H110.782C110.782 20.1955 112.607 18.4228 116.332 18.4228C120.056 18.4228 121.523 20.3748 121.523 25.619V27.0329H116.448C107.004 27.0329 103.227 30.5783 103.227 36.8354C103.227 42.3855 106.181 45.3927 111.605 45.3927C116.5 45.3927 119.719 45.0234 121.46 39.6104V44.5169H128.244V26.1466C128.244 16.4074 124.467 12.8093 116.437 12.8093L116.448 12.8199ZM114.264 40.0853C111.488 40.0853 110.191 38.7241 110.191 35.833C110.191 32.467 112.195 30.7576 117.271 30.7576H121.46C121.164 36.7193 118.041 40.0853 114.264 40.0853Z" fill="#FFF7E9"/>
<path d="M141.181 1.01343H136.221C136.158 8.33625 135.398 13.3483 129.912 13.4116V18.7824H134.217V33.7129C134.217 41.7954 137.403 45.1087 144.895 45.1087C146.784 45.1087 148.493 44.8765 149.907 44.5178V38.5561C148.905 38.9149 147.786 39.0837 146.604 39.0837C142.647 39.0837 141.17 37.7225 141.17 32.4151V18.7824H149.907V12.8207H141.17V1.01343H141.181Z" fill="#FFF7E9"/>
<path d="M170.208 12.9368C166.842 12.9368 163.993 13.6859 162.168 15.5114C160.849 16.7987 160.986 16.5876 159.699 18.4553V12.5463C159.699 12.2298 159.699 11.8921 159.699 11.5123V1.01343H152.798V44.5072H159.699V33.3541C159.699 28.0467 160.353 23.7944 162.653 21.4941C163.835 20.3757 165.428 19.7215 167.433 19.7215C171.21 19.7215 173.099 21.7896 173.099 27.1603V44.5072H180V24.5541C180 16.2289 176.222 12.9262 170.208 12.9262V12.9368Z" fill="#FFF7E9"/>
<path d="M11.5962 0H6.4998C6.43649 7.52331 5.64512 12.6936 0 12.7464V18.2754H4.43168V33.6386C4.43168 41.9532 7.71323 45.3614 15.4159 45.3614C17.3574 45.3614 19.1195 45.1187 20.5757 44.7494V38.6189C19.5416 38.9882 18.3915 39.1676 17.178 39.1676C13.1157 39.1676 11.5962 37.7748 11.5962 32.3091V18.286H20.5862V12.1555H11.5962V0Z" fill="#FFF7E9"/>
<path d="M62.5918 24.9132C62.5918 30.2206 61.9376 34.4729 59.6374 36.7732C58.5189 37.955 56.8623 38.5458 54.7942 38.5458C51.08 38.5458 49.1913 36.541 49.1913 31.107V18.7932C44.9284 21.0935 44.0315 22.3597 42.2905 24.3117V33.7027C42.2905 42.0279 46.068 45.3305 52.093 45.3305C52.6628 45.3305 53.222 45.3411 53.7918 45.3516C56.6935 45.3833 59.8273 44.7291 61.7266 42.3233C62.1381 41.8063 62.4547 41.226 62.7185 40.614V45.3411H62.8978H69.5032V14.4248C66.9919 14.4037 64.7022 14.5515 62.6024 14.8258V24.9026L62.5918 24.9132Z" fill="#FFF7E9"/>
<path d="M32.8684 18.106V12.1971H26.4214V45.3503H32.8684V35.78C32.8684 27.6869 37.8488 9.67527 69.5037 9.67527V3.86133C58.4245 3.86133 41.9745 6.23544 32.8684 18.106Z" fill="#FFF7E9"/>
<path d="M30.1354 55.0809C30.051 54.7222 29.9561 54.3951 29.8716 54.0469H0L0.084413 54.374C0.242687 54.9649 0.411513 55.5663 0.559236 56.1572H8.73674C8.73674 56.1572 8.82116 56.1783 8.85281 56.21C8.88447 56.2416 8.89502 56.2838 8.89502 56.326L8.72619 58.7529C8.72619 58.8268 8.66288 58.8901 8.57847 58.9006C8.10364 58.9323 7.62882 58.9534 7.18565 58.9745C6.26766 59.0272 5.39188 59.0694 4.5372 59.2066C2.54294 59.5337 1.46668 60.8527 1.52999 62.9313C1.59329 65.0944 2.6168 66.751 4.66382 67.975C4.81154 68.07 4.98036 68.1544 5.13864 68.2494C5.27581 68.3338 5.42353 68.4076 5.57126 68.5026C5.61346 68.5237 5.64512 68.5765 5.64512 68.6292C5.64512 68.682 5.62401 68.7242 5.59236 68.7664C4.41058 69.7371 3.30266 70.6446 2.14198 71.5731C2.74342 72.0585 3.32376 72.5333 3.89355 73.0081L4.71657 73.6729L6.08828 71.8791C6.8058 70.9611 7.51275 70.0326 8.24082 69.104C8.27247 69.0618 8.31468 69.0407 8.35688 69.0407C8.39909 69.0407 8.45185 69.0618 8.4835 69.0935C9.61253 70.328 10.6888 71.5415 11.7862 72.7549L12.4826 73.5357C12.7886 73.1875 13.0629 72.8921 13.3478 72.5755L13.8121 72.069C12.7358 71.1089 11.7334 70.2014 10.636 69.2096C10.5938 69.1673 10.5727 69.1146 10.5833 69.0618C10.6044 68.9985 10.6466 68.9563 10.6993 68.9458C11.9866 68.5659 13.4428 68.0383 14.5401 66.8143C13.8332 65.9386 13.1368 65.105 12.4404 64.2714C12.2821 64.4191 12.1238 64.5668 11.9866 64.6935C11.5962 65.0522 11.2164 65.3899 10.8154 65.7064C9.73915 66.5505 8.68398 66.9832 7.55496 67.057C5.47629 67.2047 5.14919 66.9304 4.8854 64.8939C4.84319 64.5352 4.80099 64.1448 4.81154 63.7649C4.83264 62.3404 5.49739 61.528 6.89021 61.2114C7.38613 61.0954 7.92427 61.0848 8.4413 61.0743C9.39094 61.0532 10.3406 61.0637 11.343 61.0637H12.2082V56.3366C12.2082 56.2522 12.2821 56.1783 12.3665 56.1783H16.7032C16.7876 56.1783 16.8615 56.2522 16.8615 56.3366V57.5606C16.8615 58.5735 16.8615 59.5232 16.8615 60.4834C16.8193 61.9606 17.3996 63.1107 18.6553 63.9865C19.9215 64.8939 21.3143 65.2949 22.7915 65.1894C23.2452 65.1577 23.6989 65.0944 24.1738 65.0206L24.6697 64.9467C24.6697 64.9467 24.7647 64.9467 24.7963 64.9889C24.828 65.0206 24.8491 65.0628 24.8491 65.105V66.8776C24.8491 67.4685 24.8491 68.0594 24.8491 68.6609C24.8491 68.7558 24.8491 68.8508 24.8491 68.9563V69.1251C24.9124 69.1251 24.9862 69.1462 25.0601 69.1568C26.1891 69.3889 27.2337 69.5789 28.2889 69.7793V56.2733C28.2889 56.1889 28.3628 56.115 28.4472 56.115H30.3887C30.2937 55.7562 30.2093 55.4186 30.1249 55.0809H30.1354ZM24.8491 60.6627C24.8174 61.3169 24.2898 62.1189 23.4563 62.7414C22.7809 63.2479 22.0529 63.5433 21.462 63.5433C21.3354 63.5433 21.2088 63.5222 21.0927 63.5011C20.8183 63.4167 20.5124 63.0052 20.4807 62.6992C20.3646 61.5913 20.333 60.4834 20.3119 59.6392C20.3119 58.9323 20.3119 58.2253 20.3119 57.4867V56.3366C20.3119 56.2522 20.3857 56.1783 20.4701 56.1783H24.7119C24.7963 56.1783 24.8702 56.2522 24.8702 56.3366C24.8702 56.7903 24.8702 57.244 24.8702 57.6872C24.8702 58.7107 24.8702 59.6603 24.8491 60.6522V60.6627Z" fill="#FFF7E9"/>
<path d="M14.614 78.5878L14.1181 79.0837L12.7252 77.9336C11.6701 77.0789 11.4696 76.9101 11.3852 76.8362C10.0979 75.76 8.895 75.359 7.6077 75.5595C6.89019 75.6756 6.39426 75.9816 6.19378 76.4458C6.08827 76.6991 6.06716 76.9312 6.13047 77.1633C6.24654 77.6276 6.70026 77.9969 7.2806 78.0813C7.74487 78.1868 8.25135 78.1868 8.71562 78.0813C9.08493 77.9969 9.43313 77.8597 9.76023 77.6698L10.5516 79.5797C10.119 79.7907 9.65472 79.9384 9.16934 80.0017C8.68397 80.0756 8.16694 80.0756 7.68156 80.0017C7.24895 79.9279 6.08827 79.7485 5.21248 78.841C4.42111 78.0286 3.84077 76.6147 4.30504 75.3063C5.03311 73.2909 7.61825 73.1221 7.64991 73.1221C7.75542 73.1221 7.86094 73.1221 7.96646 73.1221C8.35687 73.1221 8.73672 73.1643 9.11658 73.2592C9.88685 73.4386 10.6888 73.8712 11.5118 74.5465C12.7252 75.5489 13.8121 76.9418 14.6456 78.5878H14.614Z" fill="#FFF7E9"/>
<path d="M47.5987 54.1193H40.0754L40.6874 56.1135L42.344 56.1979C42.4284 56.1979 42.5023 56.2718 42.5023 56.3562C42.5023 56.7361 42.5023 57.1159 42.5023 57.5063C42.5023 58.4138 42.5234 59.3634 42.4601 60.2709C42.4073 61.02 42.1752 61.7375 41.8164 62.2229C41.7637 62.3073 41.7003 62.3917 41.637 62.4761C40.9406 63.3414 40.0332 63.9428 38.9991 64.2277C37.8174 64.5548 36.8361 64.3121 36.3507 64.1961C36.0869 64.1328 35.8442 64.0483 35.6015 63.9534C35.5488 63.9323 35.5065 63.8795 35.5065 63.8162C35.5065 63.7529 35.5277 63.7001 35.591 63.6685C36.6461 63.1198 38.1022 62.1279 39.0202 60.5769C39.6111 59.5533 39.685 58.7725 39.6955 58.4876C39.6955 58.0234 39.6006 57.538 39.4106 57.0632C38.5138 54.8579 35.9708 53.3068 33.6389 53.56C32.3938 53.6972 31.5919 54.2142 31.2226 55.1639C30.8111 56.2296 31.0116 57.2636 31.7818 58.0972C32.2039 58.5404 32.7737 58.8991 33.3224 59.2368L33.5967 59.4056C33.7972 59.5217 34.0293 59.6061 34.3353 59.7011C34.5041 59.7538 34.6941 59.8066 34.8946 59.8804C34.9473 59.9016 34.9895 59.9543 35.0001 60.0176C35.0001 60.0809 34.9684 60.1442 34.9157 60.1759L31.5497 61.9697C31.9295 63.5102 33.0058 64.8292 34.5886 65.7155C36.7938 66.95 39.6639 67.1505 42.2596 66.2642C42.3123 66.2431 42.3651 66.2536 42.4073 66.2853C42.4495 66.3169 42.4706 66.3697 42.4706 66.4225C42.4284 67.1189 42.4073 67.8469 42.3968 68.5644V68.9548L42.9665 69.092L45.8893 69.6723V56.2718C45.8893 56.1874 45.9632 56.1135 46.0476 56.1135H48.0735L47.5671 54.1298L47.5987 54.1193ZM34.3037 56.62C34.3037 55.8814 34.673 55.3855 35.3061 55.185C35.707 55.0584 36.013 55.0689 36.2452 55.2061C36.4773 55.3538 36.625 55.6176 36.6883 56.0397C36.8783 57.1265 36.6145 58.1078 35.9075 59.0574C35.8759 59.0996 35.8231 59.1207 35.7809 59.1207C35.7492 59.1207 35.7176 59.1102 35.6859 59.0891C34.7363 58.4349 34.2931 57.6224 34.3037 56.62Z" fill="#FFF7E9"/>
</svg>
