<?xml version="1.0" encoding="UTF-8"?>
<svg id="Layer_2" data-name="Layer 2" xmlns="http://www.w3.org/2000/svg" viewBox="0 0 202.58 108.58">
  <defs>
    <style>
      .cls-1 {
        fill: #fff7e9;
      }

      .cls-1, .cls-2 {
        stroke-width: 0px;
      }

      .cls-2 {
        fill: #411a0f;
      }
    </style>
  </defs>
  <g id="Layer_1-2" data-name="Layer 1">
    <g>
      <path class="cls-2" d="M0,0h202.58v101.47c0,3.92-3.19,7.11-7.11,7.11H7.11c-3.92,0-7.11-3.19-7.11-7.11V0h0Z"/>
      <g>
        <g>
          <path class="cls-1" d="M101.4,29.78c-4.48,0-6.57,1.47-9.13,4.35v-4.35h-.17s-6.26,0-6.26,0h0v39.43h6.54v-12.36c1.9,1.96,4.36,2.85,7.27,2.85,7.55,0,12.49-4.98,12.42-15.89-.06-9.72-4.07-14.04-10.67-14.04ZM98.53,54.33c-3.86,0-6.26-2.7-6.26-9.58,0-5.78,2.3-10.5,6.72-10.5,4.03,0,6.31,2.65,6.31,10.35,0,6.94-2.52,9.73-6.77,9.73Z"/>
          <path class="cls-1" d="M126.39,28.88c-7.55,0-11.63,3.64-11.63,10.68h6.26c0-3.69,1.73-5.37,5.26-5.37s4.92,1.85,4.92,6.82v1.34h-4.81c-8.95,0-12.53,3.36-12.53,9.29,0,5.26,2.8,8.11,7.94,8.11,4.64,0,7.69-.35,9.34-5.48v4.65h6.43v-17.41c0-9.23-3.58-12.64-11.19-12.64ZM124.32,54.72c-2.63,0-3.86-1.29-3.86-4.03,0-3.19,1.9-4.81,6.71-4.81h3.97c-.28,5.65-3.24,8.84-6.82,8.84Z"/>
          <path class="cls-1" d="M149.83,17.69h-4.7c-.06,6.94-.78,11.69-5.98,11.75v5.09h4.08v14.15c0,7.66,3.02,10.8,10.12,10.8,1.79,0,3.41-.22,4.75-.56v-5.65c-.95.34-2.01.5-3.13.5-3.75,0-5.15-1.29-5.15-6.32v-12.92h8.28v-5.65h-8.28v-11.19Z"/>
          <path class="cls-1" d="M177.34,28.99c-3.19,0-5.89.71-7.62,2.44-1.25,1.22-1.12,1.02-2.34,2.79v-5.6c0-.3,0-.62,0-.98v-9.96h-6.54v41.22h6.54v-10.57c0-5.03.62-9.06,2.8-11.24,1.12-1.06,2.63-1.68,4.53-1.68,3.58,0,5.37,1.96,5.37,7.05v16.44h6.54v-18.91c0-7.89-3.58-11.02-9.28-11.02Z"/>
          <path class="cls-1" d="M27.02,16.73h-4.83c-.06,7.13-.81,12.03-6.16,12.08v5.24h4.2v14.56c0,7.88,3.11,11.11,10.41,11.11,1.84,0,3.51-.23,4.89-.58v-5.81c-.98.35-2.07.52-3.22.52-3.85,0-5.29-1.32-5.29-6.5v-13.29h8.52v-5.81h-8.52v-11.51Z"/>
          <path class="cls-1" d="M75.35,40.34c0,5.03-.62,9.06-2.8,11.24-1.06,1.12-2.63,1.68-4.59,1.68-3.52,0-5.31-1.9-5.31-7.05v-11.67c-4.04,2.18-4.89,3.38-6.54,5.23v8.9c0,7.89,3.58,11.02,9.29,11.02.54,0,1.07.01,1.61.02,2.75.03,5.72-.59,7.52-2.87.39-.49.69-1.04.94-1.62v4.48h.17s6.26,0,6.26,0h0v-29.31c-2.38-.02-4.55.12-6.54.38v9.55Z"/>
          <path class="cls-1" d="M47.18,33.89v-5.6h-6.11v31.42h6.11v-9.07c0-7.67,4.72-24.74,34.72-24.74v-5.51c-10.5,0-26.09,2.25-34.72,13.5Z"/>
        </g>
        <g>
          <path class="cls-1" d="M44.59,68.93c-.08-.34-.17-.65-.25-.98h-28.31l.08.31c.15.56.31,1.13.45,1.69h7.75s.08.02.11.05c.03.03.04.07.04.11l-.16,2.3c0,.07-.06.13-.14.14-.45.03-.9.05-1.32.07-.87.05-1.7.09-2.51.22-1.89.31-2.91,1.56-2.85,3.53.06,2.05,1.03,3.62,2.97,4.78.14.09.3.17.45.26.13.08.27.15.41.24.04.02.07.07.07.12s-.02.09-.05.13c-1.12.92-2.17,1.78-3.27,2.66.57.46,1.12.91,1.66,1.36l.78.63,1.3-1.7c.68-.87,1.35-1.75,2.04-2.63.03-.04.07-.06.11-.06s.09.02.12.05c1.07,1.17,2.09,2.32,3.13,3.47l.66.74c.29-.33.55-.61.82-.91l.44-.48c-1.02-.91-1.97-1.77-3.01-2.71-.04-.04-.06-.09-.05-.14.02-.06.06-.1.11-.11,1.22-.36,2.6-.86,3.64-2.02-.67-.83-1.33-1.62-1.99-2.41-.15.14-.3.28-.43.4-.37.34-.73.66-1.11.96-1.02.8-2.02,1.21-3.09,1.28-1.97.14-2.28-.12-2.53-2.05-.04-.34-.08-.71-.07-1.07.02-1.35.65-2.12,1.97-2.42.47-.11.98-.12,1.47-.13.9-.02,1.8-.01,2.75-.01h.82v-4.48c0-.08.07-.15.15-.15h4.11c.08,0,.15.07.15.15v1.16c0,.96,0,1.86,0,2.77-.04,1.4.51,2.49,1.7,3.32,1.2.86,2.52,1.24,3.92,1.14.43-.03.86-.09,1.31-.16l.47-.07s.09,0,.12.04c.03.03.05.07.05.11v1.68c0,.56,0,1.12,0,1.69,0,.09,0,.18,0,.28v.16c.06,0,.13.02.2.03,1.07.22,2.06.4,3.06.59v-12.8c0-.08.07-.15.15-.15h1.84c-.09-.34-.17-.66-.25-.98ZM39.58,74.22c-.03.62-.53,1.38-1.32,1.97-.64.48-1.33.76-1.89.76-.12,0-.24-.02-.35-.04-.26-.08-.55-.47-.58-.76-.11-1.05-.14-2.1-.16-2.9,0-.67,0-1.34,0-2.04v-1.09c0-.08.07-.15.15-.15h4.02c.08,0,.15.07.15.15,0,.43,0,.86,0,1.28,0,.97,0,1.87-.02,2.81Z"/>
          <path class="cls-1" d="M29.88,91.21l-.47.47-1.32-1.09c-1-.81-1.19-.97-1.27-1.04-1.22-1.02-2.36-1.4-3.58-1.21-.68.11-1.15.4-1.34.84-.1.24-.12.46-.06.68.11.44.54.79,1.09.87.44.1.92.1,1.36,0,.35-.08.68-.21.99-.39l.75,1.81c-.41.2-.85.34-1.31.4-.46.07-.95.07-1.41,0-.41-.07-1.51-.24-2.34-1.1-.75-.77-1.3-2.11-.86-3.35.69-1.91,3.14-2.07,3.17-2.07.1,0,.2,0,.3,0,.37,0,.73.04,1.09.13.73.17,1.49.58,2.27,1.22,1.15.95,2.18,2.27,2.97,3.83Z"/>
          <path class="cls-1" d="M61.14,68.02h-7.13l.58,1.89,1.57.08c.08,0,.15.07.15.15,0,.36,0,.72,0,1.09,0,.86.02,1.76-.04,2.62-.05.71-.27,1.39-.61,1.85-.05.08-.11.16-.17.24-.66.82-1.52,1.39-2.5,1.66-1.12.31-2.05.08-2.51-.03-.25-.06-.48-.14-.71-.23-.05-.02-.09-.07-.09-.13,0-.06.02-.11.08-.14,1-.52,2.38-1.46,3.25-2.93.56-.97.63-1.71.64-1.98,0-.44-.09-.9-.27-1.35-.85-2.09-3.26-3.56-5.47-3.32-1.18.13-1.94.62-2.29,1.52-.39,1.01-.2,1.99.53,2.78.4.42.94.76,1.46,1.08l.26.16c.19.11.41.19.7.28.16.05.34.1.53.17.05.02.09.07.1.13,0,.06-.03.12-.08.15l-3.19,1.7c.36,1.46,1.38,2.71,2.88,3.55,2.09,1.17,4.81,1.36,7.27.52.05-.02.1-.01.14.02.04.03.06.08.06.13-.04.66-.06,1.35-.07,2.03v.37l.54.13,2.77.55v-12.7c0-.08.07-.15.15-.15h1.92l-.48-1.88ZM48.54,70.39c0-.7.35-1.17.95-1.36.38-.12.67-.11.89.02.22.14.36.39.42.79.18,1.03-.07,1.96-.74,2.86-.03.04-.08.06-.12.06-.03,0-.06-.01-.09-.03-.9-.62-1.32-1.39-1.31-2.34Z"/>
        </g>
      </g>
    </g>
  </g>
</svg>